<svg height="384px" version="1.1" viewBox="0 0 3960 2880" width="528px" xmlns="http://www.w3.org/2000/svg" xmlns:xlink="http://www.w3.org/1999/xlink">
	<desc>Stata Graph - a</desc>
	<rect height="2880" style="fill:#EAF2F3;stroke:none" width="3960" x="0" y="0"/>
	<rect height="2880.00" style="fill:#EAF2F3" width="3959.88" x="0.00" y="0.00"/>
	<rect height="2874.24" style="fill:none;stroke:#EAF2F3;stroke-width:5.76" width="3954.12" x="2.88" y="2.88"/>
	<rect height="2388.33" style="fill:#FFFFFF" width="3468.22" x="390.80" y="100.86"/>
	<rect height="2382.57" style="fill:none;stroke:#FFFFFF;stroke-width:5.76" width="3462.46" x="393.68" y="103.74"/>
	<line style="stroke:#EAF2F3;stroke-width:8.64" x1="390.80" x2="3859.02" y1="2425.82" y2="2425.82"/>
	<line style="stroke:#EAF2F3;stroke-width:8.64" x1="390.80" x2="3859.02" y1="1696.29" y2="1696.29"/>
	<line style="stroke:#EAF2F3;stroke-width:8.64" x1="390.80" x2="3859.02" y1="966.64" y2="966.64"/>
	<line style="stroke:#EAF2F3;stroke-width:8.64" x1="390.80" x2="3859.02" y1="237.11" y2="237.11"/>
	<circle cx="1315.22" cy="1550.39" r="26.35" style="fill:#1A476F"/>
	<circle cx="1315.22" cy="1550.39" r="22.03" style="fill:none;stroke:#1A476F;stroke-width:8.64"/>
	<circle cx="1451.71" cy="1915.21" r="26.35" style="fill:#1A476F"/>
	<circle cx="1451.71" cy="1915.21" r="22.03" style="fill:none;stroke:#1A476F;stroke-width:8.64"/>
	<circle cx="1252.23" cy="1550.39" r="26.35" style="fill:#1A476F"/>
	<circle cx="1252.23" cy="1550.39" r="22.03" style="fill:none;stroke:#1A476F;stroke-width:8.64"/>
	<circle cx="1465.82" cy="1696.29" r="26.35" style="fill:#1A476F"/>
	<circle cx="1465.82" cy="1696.29" r="22.03" style="fill:none;stroke:#1A476F;stroke-width:8.64"/>
	<circle cx="2098.43" cy="2061.12" r="26.35" style="fill:#1A476F"/>
	<circle cx="2098.43" cy="2061.12" r="22.03" style="fill:none;stroke:#1A476F;stroke-width:8.64"/>
	<circle cx="1670.01" cy="1842.20" r="26.35" style="fill:#1A476F"/>
	<circle cx="1670.01" cy="1842.20" r="22.03" style="fill:none;stroke:#1A476F;stroke-width:8.64"/>
	<circle cx="1389.59" cy="1258.58" r="26.35" style="fill:#1A476F"/>
	<circle cx="1389.59" cy="1258.58" r="22.03" style="fill:none;stroke:#1A476F;stroke-width:8.64"/>
	<circle cx="1544.15" cy="1696.29" r="26.35" style="fill:#1A476F"/>
	<circle cx="1544.15" cy="1696.29" r="22.03" style="fill:none;stroke:#1A476F;stroke-width:8.64"/>
	<circle cx="2633.03" cy="1988.11" r="26.35" style="fill:#1A476F"/>
	<circle cx="2633.03" cy="1988.11" r="22.03" style="fill:none;stroke:#1A476F;stroke-width:8.64"/>
	<circle cx="1311.63" cy="1769.31" r="26.35" style="fill:#1A476F"/>
	<circle cx="1311.63" cy="1769.31" r="22.03" style="fill:none;stroke:#1A476F;stroke-width:8.64"/>
	<circle cx="2845.88" cy="2134.14" r="26.35" style="fill:#1A476F"/>
	<circle cx="2845.88" cy="2134.14" r="22.03" style="fill:none;stroke:#1A476F;stroke-width:8.64"/>
	<circle cx="3500.27" cy="2134.14" r="26.35" style="fill:#1A476F"/>
	<circle cx="3500.27" cy="2134.14" r="22.03" style="fill:none;stroke:#1A476F;stroke-width:8.64"/>
	<circle cx="3795.66" cy="1623.40" r="26.35" style="fill:#1A476F"/>
	<circle cx="3795.66" cy="1623.40" r="22.03" style="fill:none;stroke:#1A476F;stroke-width:8.64"/>
	<circle cx="1147.16" cy="1039.66" r="26.35" style="fill:#1A476F"/>
	<circle cx="1147.16" cy="1039.66" r="22.03" style="fill:none;stroke:#1A476F;stroke-width:8.64"/>
	<circle cx="1652.56" cy="1988.11" r="26.35" style="fill:#1A476F"/>
	<circle cx="1652.56" cy="1988.11" r="22.03" style="fill:none;stroke:#1A476F;stroke-width:8.64"/>
	<circle cx="1400.23" cy="1550.39" r="26.35" style="fill:#1A476F"/>
	<circle cx="1400.23" cy="1550.39" r="22.03" style="fill:none;stroke:#1A476F;stroke-width:8.64"/>
	<circle cx="1526.33" cy="1550.39" r="26.35" style="fill:#1A476F"/>
	<circle cx="1526.33" cy="1550.39" r="22.03" style="fill:none;stroke:#1A476F;stroke-width:8.64"/>
	<circle cx="1224.51" cy="1404.48" r="26.35" style="fill:#1A476F"/>
	<circle cx="1224.51" cy="1404.48" r="22.03" style="fill:none;stroke:#1A476F;stroke-width:8.64"/>
	<circle cx="1284.90" cy="1769.31" r="26.35" style="fill:#1A476F"/>
	<circle cx="1284.90" cy="1769.31" r="22.03" style="fill:none;stroke:#1A476F;stroke-width:8.64"/>
	<circle cx="1291.08" cy="966.77" r="26.35" style="fill:#1A476F"/>
	<circle cx="1291.08" cy="966.77" r="22.03" style="fill:none;stroke:#1A476F;stroke-width:8.64"/>
	<circle cx="1296.53" cy="1842.20" r="26.35" style="fill:#1A476F"/>
	<circle cx="1296.53" cy="1842.20" r="22.03" style="fill:none;stroke:#1A476F;stroke-width:8.64"/>
	<circle cx="1690.67" cy="1988.11" r="26.35" style="fill:#1A476F"/>
	<circle cx="1690.67" cy="1988.11" r="22.03" style="fill:none;stroke:#1A476F;stroke-width:8.64"/>
	<circle cx="1786.46" cy="1915.21" r="26.35" style="fill:#1A476F"/>
	<circle cx="1786.46" cy="1915.21" r="22.03" style="fill:none;stroke:#1A476F;stroke-width:8.64"/>
	<circle cx="1376.10" cy="1112.67" r="26.35" style="fill:#1A476F"/>
	<circle cx="1376.10" cy="1112.67" r="22.03" style="fill:none;stroke:#1A476F;stroke-width:8.64"/>
	<circle cx="1333.65" cy="1623.40" r="26.35" style="fill:#1A476F"/>
	<circle cx="1333.65" cy="1623.40" r="22.03" style="fill:none;stroke:#1A476F;stroke-width:8.64"/>
	<circle cx="2869.39" cy="2280.04" r="26.35" style="fill:#1A476F"/>
	<circle cx="2869.39" cy="2280.04" r="22.03" style="fill:none;stroke:#1A476F;stroke-width:8.64"/>
	<circle cx="3309.94" cy="2280.04" r="26.35" style="fill:#1A476F"/>
	<circle cx="3309.94" cy="2280.04" r="22.03" style="fill:none;stroke:#1A476F;stroke-width:8.64"/>
	<circle cx="3283.09" cy="2134.14" r="26.35" style="fill:#1A476F"/>
	<circle cx="3283.09" cy="2134.14" r="22.03" style="fill:none;stroke:#1A476F;stroke-width:8.64"/>
	<circle cx="1258.54" cy="1550.39" r="26.35" style="fill:#1A476F"/>
	<circle cx="1258.54" cy="1550.39" r="22.03" style="fill:none;stroke:#1A476F;stroke-width:8.64"/>
	<circle cx="1584.12" cy="2134.14" r="26.35" style="fill:#1A476F"/>
	<circle cx="1584.12" cy="2134.14" r="22.03" style="fill:none;stroke:#1A476F;stroke-width:8.64"/>
	<circle cx="1749.21" cy="2061.12" r="26.35" style="fill:#1A476F"/>
	<circle cx="1749.21" cy="2061.12" r="22.03" style="fill:none;stroke:#1A476F;stroke-width:8.64"/>
	<circle cx="1402.83" cy="1842.20" r="26.35" style="fill:#1A476F"/>
	<circle cx="1402.83" cy="1842.20" r="22.03" style="fill:none;stroke:#1A476F;stroke-width:8.64"/>
	<circle cx="1778.29" cy="2134.14" r="26.35" style="fill:#1A476F"/>
	<circle cx="1778.29" cy="2134.14" r="22.03" style="fill:none;stroke:#1A476F;stroke-width:8.64"/>
	<circle cx="1145.43" cy="1696.29" r="26.35" style="fill:#1A476F"/>
	<circle cx="1145.43" cy="1696.29" r="22.03" style="fill:none;stroke:#1A476F;stroke-width:8.64"/>
	<circle cx="2305.71" cy="1623.40" r="26.35" style="fill:#1A476F"/>
	<circle cx="2305.71" cy="1623.40" r="22.03" style="fill:none;stroke:#1A476F;stroke-width:8.64"/>
	<circle cx="1540.69" cy="1769.31" r="26.35" style="fill:#1A476F"/>
	<circle cx="1540.69" cy="1769.31" r="22.03" style="fill:none;stroke:#1A476F;stroke-width:8.64"/>
	<circle cx="1448.37" cy="1769.31" r="26.35" style="fill:#1A476F"/>
	<circle cx="1448.37" cy="1769.31" r="22.03" style="fill:none;stroke:#1A476F;stroke-width:8.64"/>
	<circle cx="1481.41" cy="1842.20" r="26.35" style="fill:#1A476F"/>
	<circle cx="1481.41" cy="1842.20" r="22.03" style="fill:none;stroke:#1A476F;stroke-width:8.64"/>
	<circle cx="1332.42" cy="1769.31" r="26.35" style="fill:#1A476F"/>
	<circle cx="1332.42" cy="1769.31" r="22.03" style="fill:none;stroke:#1A476F;stroke-width:8.64"/>
	<circle cx="1335.39" cy="1404.48" r="26.35" style="fill:#1A476F"/>
	<circle cx="1335.39" cy="1404.48" r="22.03" style="fill:none;stroke:#1A476F;stroke-width:8.64"/>
	<circle cx="2632.91" cy="1988.11" r="26.35" style="fill:#1A476F"/>
	<circle cx="2632.91" cy="1988.11" r="22.03" style="fill:none;stroke:#1A476F;stroke-width:8.64"/>
	<circle cx="1430.30" cy="1112.67" r="26.35" style="fill:#1A476F"/>
	<circle cx="1430.30" cy="1112.67" r="22.03" style="fill:none;stroke:#1A476F;stroke-width:8.64"/>
	<circle cx="1383.65" cy="674.95" r="26.35" style="fill:#1A476F"/>
	<circle cx="1383.65" cy="674.95" r="22.03" style="fill:none;stroke:#1A476F;stroke-width:8.64"/>
	<circle cx="1395.65" cy="1331.59" r="26.35" style="fill:#1A476F"/>
	<circle cx="1395.65" cy="1331.59" r="22.03" style="fill:none;stroke:#1A476F;stroke-width:8.64"/>
	<circle cx="1816.65" cy="1258.58" r="26.35" style="fill:#1A476F"/>
	<circle cx="1816.65" cy="1258.58" r="22.03" style="fill:none;stroke:#1A476F;stroke-width:8.64"/>
	<circle cx="1307.05" cy="1842.20" r="26.35" style="fill:#1A476F"/>
	<circle cx="1307.05" cy="1842.20" r="22.03" style="fill:none;stroke:#1A476F;stroke-width:8.64"/>
	<circle cx="1672.11" cy="1842.20" r="26.35" style="fill:#1A476F"/>
	<circle cx="1672.11" cy="1842.20" r="22.03" style="fill:none;stroke:#1A476F;stroke-width:8.64"/>
	<circle cx="1490.57" cy="1842.20" r="26.35" style="fill:#1A476F"/>
	<circle cx="1490.57" cy="1842.20" r="22.03" style="fill:none;stroke:#1A476F;stroke-width:8.64"/>
	<circle cx="1551.08" cy="1769.31" r="26.35" style="fill:#1A476F"/>
	<circle cx="1551.08" cy="1769.31" r="22.03" style="fill:none;stroke:#1A476F;stroke-width:8.64"/>
	<circle cx="1446.27" cy="1769.31" r="26.35" style="fill:#1A476F"/>
	<circle cx="1446.27" cy="1769.31" r="22.03" style="fill:none;stroke:#1A476F;stroke-width:8.64"/>
	<circle cx="1383.53" cy="1769.31" r="26.35" style="fill:#1A476F"/>
	<circle cx="1383.53" cy="1769.31" r="22.03" style="fill:none;stroke:#1A476F;stroke-width:8.64"/>
	<circle cx="1330.56" cy="1404.48" r="26.35" style="fill:#1A476F"/>
	<circle cx="1330.56" cy="1404.48" r="22.03" style="fill:none;stroke:#1A476F;stroke-width:8.64"/>
	<circle cx="2489.73" cy="1915.21" r="26.35" style="fill:#1A476F"/>
	<circle cx="2489.73" cy="1915.21" r="22.03" style="fill:none;stroke:#1A476F;stroke-width:8.64"/>
	<circle cx="1776.56" cy="1477.50" r="26.35" style="fill:#1A476F"/>
	<circle cx="1776.56" cy="1477.50" r="22.03" style="fill:none;stroke:#1A476F;stroke-width:8.64"/>
	<circle cx="2499.26" cy="1331.59" r="26.35" style="fill:#1A476F"/>
	<circle cx="2499.26" cy="1331.59" r="22.03" style="fill:none;stroke:#1A476F;stroke-width:8.64"/>
	<circle cx="1762.70" cy="1477.50" r="26.35" style="fill:#1A476F"/>
	<circle cx="1762.70" cy="1477.50" r="22.03" style="fill:none;stroke:#1A476F;stroke-width:8.64"/>
	<circle cx="1418.18" cy="601.94" r="26.35" style="fill:#1A476F"/>
	<circle cx="1418.18" cy="601.94" r="22.03" style="fill:none;stroke:#1A476F;stroke-width:8.64"/>
	<circle cx="1521.14" cy="1404.48" r="26.35" style="fill:#1A476F"/>
	<circle cx="1521.14" cy="1404.48" r="22.03" style="fill:none;stroke:#1A476F;stroke-width:8.64"/>
	<circle cx="2161.79" cy="1623.40" r="26.35" style="fill:#1A476F"/>
	<circle cx="2161.79" cy="1623.40" r="22.03" style="fill:none;stroke:#1A476F;stroke-width:8.64"/>
	<circle cx="1356.55" cy="1623.40" r="26.35" style="fill:#1A476F"/>
	<circle cx="1356.55" cy="1623.40" r="22.03" style="fill:none;stroke:#1A476F;stroke-width:8.64"/>
	<circle cx="1672.36" cy="1331.59" r="26.35" style="fill:#1A476F"/>
	<circle cx="1672.36" cy="1331.59" r="22.03" style="fill:none;stroke:#1A476F;stroke-width:8.64"/>
	<circle cx="1399.24" cy="1112.67" r="26.35" style="fill:#1A476F"/>
	<circle cx="1399.24" cy="1112.67" r="22.03" style="fill:none;stroke:#1A476F;stroke-width:8.64"/>
	<circle cx="1293.31" cy="966.77" r="26.35" style="fill:#1A476F"/>
	<circle cx="1293.31" cy="966.77" r="22.03" style="fill:none;stroke:#1A476F;stroke-width:8.64"/>
	<circle cx="3183.10" cy="2134.14" r="26.35" style="fill:#1A476F"/>
	<circle cx="3183.10" cy="2134.14" r="22.03" style="fill:none;stroke:#1A476F;stroke-width:8.64"/>
	<circle cx="1272.40" cy="1258.58" r="26.35" style="fill:#1A476F"/>
	<circle cx="1272.40" cy="1258.58" r="22.03" style="fill:none;stroke:#1A476F;stroke-width:8.64"/>
	<circle cx="1251.98" cy="601.94" r="26.35" style="fill:#1A476F"/>
	<circle cx="1251.98" cy="601.94" r="22.03" style="fill:none;stroke:#1A476F;stroke-width:8.64"/>
	<circle cx="1693.40" cy="1842.20" r="26.35" style="fill:#1A476F"/>
	<circle cx="1693.40" cy="1842.20" r="22.03" style="fill:none;stroke:#1A476F;stroke-width:8.64"/>
	<circle cx="1241.46" cy="893.75" r="26.35" style="fill:#1A476F"/>
	<circle cx="1241.46" cy="893.75" r="22.03" style="fill:none;stroke:#1A476F;stroke-width:8.64"/>
	<circle cx="1655.53" cy="1842.20" r="26.35" style="fill:#1A476F"/>
	<circle cx="1655.53" cy="1842.20" r="22.03" style="fill:none;stroke:#1A476F;stroke-width:8.64"/>
	<circle cx="1954.01" cy="1477.50" r="26.35" style="fill:#1A476F"/>
	<circle cx="1954.01" cy="1477.50" r="22.03" style="fill:none;stroke:#1A476F;stroke-width:8.64"/>
	<circle cx="1587.84" cy="164.22" r="26.35" style="fill:#1A476F"/>
	<circle cx="1587.84" cy="164.22" r="22.03" style="fill:none;stroke:#1A476F;stroke-width:8.64"/>
	<circle cx="1440.82" cy="1331.59" r="26.35" style="fill:#1A476F"/>
	<circle cx="1440.82" cy="1331.59" r="22.03" style="fill:none;stroke:#1A476F;stroke-width:8.64"/>
	<circle cx="1893.13" cy="1331.59" r="26.35" style="fill:#1A476F"/>
	<circle cx="1893.13" cy="1331.59" r="22.03" style="fill:none;stroke:#1A476F;stroke-width:8.64"/>
	<circle cx="2974.08" cy="1915.21" r="26.35" style="fill:#1A476F"/>
	<circle cx="2974.08" cy="1915.21" r="22.03" style="fill:none;stroke:#1A476F;stroke-width:8.64"/>
	<line style="stroke:#000000;stroke-width:5.76" x1="390.80" x2="390.80" y1="2489.19" y2="100.86"/>
	<line style="stroke:#000000;stroke-width:5.76" x1="390.80" x2="350.83" y1="2425.82" y2="2425.82"/>
	<text style="font-family:'Helvetica';font-size:99.99px;fill:#000000" text-anchor="middle" transform="rotate(-90 300.72,2425.82)" x="300.72" y="2425.82">10</text>
	<line style="stroke:#000000;stroke-width:5.76" x1="390.80" x2="350.83" y1="1696.29" y2="1696.29"/>
	<text style="font-family:'Helvetica';font-size:99.99px;fill:#000000" text-anchor="middle" transform="rotate(-90 300.72,1696.29)" x="300.72" y="1696.29">20</text>
	<line style="stroke:#000000;stroke-width:5.76" x1="390.80" x2="350.83" y1="966.64" y2="966.64"/>
	<text style="font-family:'Helvetica';font-size:99.99px;fill:#000000" text-anchor="middle" transform="rotate(-90 300.72,966.64)" x="300.72" y="966.64">30</text>
	<line style="stroke:#000000;stroke-width:5.76" x1="390.80" x2="350.83" y1="237.11" y2="237.11"/>
	<text style="font-family:'Helvetica';font-size:99.99px;fill:#000000" text-anchor="middle" transform="rotate(-90 300.72,237.11)" x="300.72" y="237.11">40</text>
	<text style="font-family:'Helvetica';font-size:99.99px;fill:#000000" text-anchor="middle" transform="rotate(-90 190.71,1294.96)" x="190.71" y="1294.96">Mileage (mpg)</text>
	<line style="stroke:#000000;stroke-width:5.76" x1="390.80" x2="3859.02" y1="2489.19" y2="2489.19"/>
	<line style="stroke:#000000;stroke-width:5.76" x1="454.16" x2="454.16" y1="2489.19" y2="2529.16"/>
	<text style="font-family:'Helvetica';font-size:99.99px;fill:#000000" text-anchor="middle" x="454.16" y="2619.14">0</text>
	<line style="stroke:#000000;stroke-width:5.76" x1="1504.55" x2="1504.55" y1="2489.19" y2="2529.16"/>
	<text style="font-family:'Helvetica';font-size:99.99px;fill:#000000" text-anchor="middle" x="1504.55" y="2619.14">5,000</text>
	<line style="stroke:#000000;stroke-width:5.76" x1="2554.94" x2="2554.94" y1="2489.19" y2="2529.16"/>
	<text style="font-family:'Helvetica';font-size:99.99px;fill:#000000" text-anchor="middle" x="2554.94" y="2619.14">10,000</text>
	<line style="stroke:#000000;stroke-width:5.76" x1="3605.33" x2="3605.33" y1="2489.19" y2="2529.16"/>
	<text style="font-family:'Helvetica';font-size:99.99px;fill:#000000" text-anchor="middle" x="3605.33" y="2619.14">15,000</text>
	<text style="font-family:'Helvetica';font-size:99.99px;fill:#000000" text-anchor="middle" x="2124.91" y="2729.16">Price</text>
</svg>